<?xml version="1.0" encoding="utf-8" standalone="no"?>
<!DOCTYPE svg PUBLIC "-//W3C//DTD SVG 1.1//EN"
  "http://www.w3.org/Graphics/SVG/1.1/DTD/svg11.dtd">
<!-- Created with matplotlib (https://matplotlib.org/) -->
<svg height="288pt" version="1.1" viewBox="0 0 432 288" width="432pt" xmlns="http://www.w3.org/2000/svg" xmlns:xlink="http://www.w3.org/1999/xlink">
 <metadata>
  <rdf:RDF xmlns:cc="http://creativecommons.org/ns#" xmlns:dc="http://purl.org/dc/elements/1.1/" xmlns:rdf="http://www.w3.org/1999/02/22-rdf-syntax-ns#">
   <cc:Work>
    <dc:type rdf:resource="http://purl.org/dc/dcmitype/StillImage"/>
    <dc:date>2021-01-28T19:41:20.398062</dc:date>
    <dc:format>image/svg+xml</dc:format>
    <dc:creator>
     <cc:Agent>
      <dc:title>Matplotlib v3.3.2, https://matplotlib.org/</dc:title>
     </cc:Agent>
    </dc:creator>
   </cc:Work>
  </rdf:RDF>
 </metadata>
 <defs>
  <style type="text/css">*{stroke-linecap:butt;stroke-linejoin:round;}</style>
 </defs>
 <g id="figure_1">
  <g id="patch_1">
   <path d="M 0 288 
L 432 288 
L 432 0 
L 0 0 
z
" style="fill:none;"/>
  </g>
  <g id="axes_1">
   <g id="patch_2">
    <path d="M 54 252 
L 388.8 252 
L 388.8 34.56 
L 54 34.56 
z
" style="fill:#ffffff;"/>
   </g>
   <g id="PolyCollection_1">
    <defs>
     <path d="M 71.775859 -73.043078 
L 71.775859 -53.471156 
L 71.775859 -73.733542 
L 71.775859 -96.408698 
L 71.775859 -100.519294 
L 71.775859 -95.639376 
L 71.775859 -86.764317 
L 71.775859 -60.256437 
L 71.775859 -63.22966 
L 71.775859 -58.22988 
L 71.775859 -50.933237 
L 71.775859 -58.119664 
L 71.775859 -70.549472 
L 71.775859 -72.797594 
L 71.775859 -82.344738 
L 71.775859 -91.706509 
L 71.775859 -102.907271 
L 71.775859 -99.568597 
L 71.775859 -89.360315 
L 71.775859 -78.51597 
L 71.775859 -72.503543 
L 71.775859 -70.920465 
L 71.775859 -62.074595 
L 71.775859 -74.944277 
L 71.775859 -63.672544 
L 71.775859 -86.706121 
L 71.775859 -98.36713 
L 71.775859 -93.210683 
L 71.775859 -109.575485 
L 71.775859 -104.005364 
L 71.775859 -104.824015 
L 71.775859 -80.453892 
L 71.775859 -85.463301 
L 71.775859 -53.437032 
L 71.775859 -53.764834 
L 71.775859 -45.883636 
L 71.775859 -63.271415 
L 71.775859 -80.1983 
L 71.775859 -93.160518 
L 71.775859 -89.963823 
L 71.775859 -135.755963 
L 71.775859 -99.348802 
L 71.775859 -94.313932 
L 71.775859 -81.436886 
L 71.775859 -78.01867 
L 71.775859 -70.560703 
L 71.775859 -68.708123 
L 71.775859 -69.894077 
L 71.775859 -74.926655 
L 71.775859 -87.657633 
L 71.775859 -83.577869 
L 71.775859 -104.614577 
L 71.775859 -120.117848 
L 71.775859 -125.786463 
L 71.775859 -122.358655 
L 71.775859 -104.068833 
L 71.775859 -88.174728 
L 71.775859 -74.734744 
L 71.775859 -77.277379 
L 71.775859 -58.325111 
L 71.775859 -74.7525 
L 71.775859 -93.979169 
L 71.775859 -94.8195 
L 71.775859 -97.508453 
L 71.775859 -115.112379 
L 71.775859 -108.590652 
L 71.775859 -110.731846 
L 71.775859 -92.545504 
L 71.775859 -82.968778 
L 71.775859 -78.77942 
L 71.775859 -67.918931 
L 71.775859 -65.918691 
L 71.775859 -85.32775 
L 71.775859 -83.121467 
L 71.775859 -98.997143 
L 71.775859 -110.548811 
L 71.775859 -116.956378 
L 71.775859 -115.67854 
L 71.775859 -132.092712 
L 71.775859 -78.620334 
L 71.775859 -89.005993 
L 71.775859 -89.885991 
L 71.775859 -58.675352 
L 71.775859 -71.987921 
L 71.775859 -79.517599 
L 71.775859 -90.485731 
L 71.775859 -103.196948 
L 71.775859 -113.805252 
L 71.775859 -125.671795 
L 71.775859 -118.328511 
L 71.775859 -113.692236 
L 71.775859 -85.757123 
L 71.775859 -79.736832 
L 71.775859 -84.246642 
L 71.775859 -78.769641 
L 71.775859 -87.921434 
L 71.775859 -62.556139 
L 71.775859 -92.272202 
L 71.775859 -107.624488 
L 71.775859 -88.407251 
L 71.775859 -120.300544 
L 71.775859 -136.951029 
L 71.775859 -136.951029 
L 71.775859 -112.836937 
L 71.775859 -126.07733 
L 71.775859 -106.59154 
L 71.775859 -83.497268 
L 71.775859 -106.159659 
L 71.775859 -96.316247 
L 71.775859 -102.515462 
L 71.775859 -98.245198 
L 71.775859 -106.378735 
L 71.775859 -129.785722 
L 71.775859 -139.259195 
L 71.775859 -141.277417 
L 71.775859 -131.465143 
L 71.775859 -119.314355 
L 71.775859 -101.809381 
L 71.775859 -94.932014 
L 71.775859 -85.786203 
L 71.775859 -77.587383 
L 71.775859 -103.985399 
L 71.775859 -104.169708 
L 71.775859 -94.493667 
L 71.775859 -156.644407 
L 71.775859 -131.329857 
L 71.775859 -132.153985 
L 71.775859 -125.116601 
L 71.775859 -115.568056 
L 71.775859 -92.962087 
L 71.775859 -104.969292 
L 71.775859 -80.797947 
L 71.775859 -80.992058 
L 71.775859 -91.224437 
L 71.775859 -103.376358 
L 71.775859 -112.561066 
L 71.775859 -126.038226 
L 71.775859 -122.575919 
L 71.775859 -127.754877 
L 71.775859 -113.911455 
L 71.775859 -109.245902 
L 71.775859 -106.085696 
L 71.775859 -86.642486 
L 71.775859 -74.82225 
L 71.775859 -91.468359 
L 71.775859 -87.52304 
L 71.775859 -102.108989 
L 71.775859 -124.901933 
L 71.775859 -143.363129 
L 71.775859 -142.112287 
L 71.775859 -134.049791 
L 71.775859 -116.793266 
L 71.775859 -100.136889 
L 71.775859 -106.079249 
L 71.775859 -84.402129 
L 71.775859 -83.158294 
L 71.775859 -83.697245 
L 71.775859 -82.51048 
L 71.775859 -86.279632 
L 71.775859 -94.714489 
L 71.775859 -114.895538 
L 71.775859 -115.641905 
L 71.775859 -159.322885 
L 71.775859 -108.774172 
L 71.775859 -103.836591 
L 71.775859 -92.373282 
L 71.775859 -79.700319 
L 71.775859 -64.220892 
L 71.775859 -70.016181 
L 71.775859 -75.328829 
L 71.775859 -96.213597 
L 71.775859 -93.427174 
L 71.775859 -116.641062 
L 71.775859 -117.513893 
L 71.775859 -132.460369 
L 71.775859 -108.374497 
L 71.775859 -114.719069 
L 71.775859 -97.074316 
L 71.775859 -77.613689 
L 71.775859 -91.046353 
L 71.775859 -77.721339 
L 71.775859 -85.986285 
L 71.775859 -83.786896 
L 71.775859 -94.367014 
L 71.775859 -100.229991 
L 71.775859 -112.59562 
L 71.775859 -116.475727 
L 71.775859 -104.719542 
L 71.775859 -94.582414 
L 71.775859 -84.417308 
L 71.775859 -90.901542 
L 71.775859 -72.324795 
L 71.775859 -66.2399 
L 71.775859 -72.66625 
L 71.775859 -78.487275 
L 71.775859 -85.07825 
L 71.775859 -103.190217 
L 71.775859 -112.374825 
L 71.775859 -117.27368 
L 71.775859 -117.3925 
L 71.775859 -92.160653 
L 71.775859 -73.043078 
z
" id="m9f1cecb926" style="stroke:#808080;stroke-opacity:0.2;"/>
    </defs>
    <g clip-path="url(#p12f4d556f3)">
     <use style="fill:#808080;fill-opacity:0.2;stroke:#808080;stroke-opacity:0.2;" x="0" xlink:href="#m9f1cecb926" y="288"/>
    </g>
   </g>
   <g id="PolyCollection_2">
    <defs>
     <path d="M 324.985943 -129.649828 
L 324.985943 -111.704693 
L 327.543621 -119.014187 
L 330.101299 -89.57894 
L 332.658976 -99.488075 
L 335.216654 -70.627819 
L 337.774332 -74.894852 
L 340.332009 -75.222642 
L 342.889687 -77.81704 
L 345.447364 -93.099994 
L 348.005042 -107.023515 
L 350.56272 -116.683932 
L 353.120397 -137.427503 
L 355.678075 -110.670074 
L 358.235752 -104.692939 
L 360.79343 -59.076587 
L 363.351108 -57.444404 
L 365.908785 -64.107014 
L 368.466463 -77.470884 
L 371.024141 -60.600345 
L 373.581818 -76.95926 
L 373.581818 -149.24866 
L 373.581818 -149.24866 
L 371.024141 -136.370976 
L 368.466463 -186.24253 
L 365.908785 -176.342523 
L 363.351108 -187.62229 
L 360.79343 -221.360746 
L 358.235752 -130.166378 
L 355.678075 -128.53441 
L 353.120397 -161.148326 
L 350.56272 -136.797879 
L 348.005042 -127.675904 
L 345.447364 -112.29482 
L 342.889687 -100.725834 
L 340.332009 -91.432915 
L 337.774332 -89.101969 
L 335.216654 -88.088162 
L 332.658976 -120.328218 
L 330.101299 -106.284874 
L 327.543621 -134.719927 
L 324.985943 -129.649828 
z
" id="m4d86d6e334" style="stroke:#808080;stroke-opacity:0.2;"/>
    </defs>
    <g clip-path="url(#p12f4d556f3)">
     <use style="fill:#808080;fill-opacity:0.2;stroke:#808080;stroke-opacity:0.2;" x="0" xlink:href="#m4d86d6e334" y="288"/>
    </g>
   </g>
   <g id="matplotlib.axis_1">
    <g id="xtick_1">
     <g id="line2d_1">
      <defs>
       <path d="M 0 0 
L 0 3.5 
" id="m705a7e5c21" style="stroke:#000000;stroke-width:0.8;"/>
      </defs>
      <g>
       <use style="stroke:#000000;stroke-width:0.8;" x="69.218182" xlink:href="#m705a7e5c21" y="252"/>
      </g>
     </g>
     <g id="text_1">
      <!-- 0 -->
      <g transform="translate(66.036932 266.598437)scale(0.1 -0.1)">
       <defs>
        <path d="M 31.78125 66.40625 
Q 24.171875 66.40625 20.328125 58.90625 
Q 16.5 51.421875 16.5 36.375 
Q 16.5 21.390625 20.328125 13.890625 
Q 24.171875 6.390625 31.78125 6.390625 
Q 39.453125 6.390625 43.28125 13.890625 
Q 47.125 21.390625 47.125 36.375 
Q 47.125 51.421875 43.28125 58.90625 
Q 39.453125 66.40625 31.78125 66.40625 
z
M 31.78125 74.21875 
Q 44.046875 74.21875 50.515625 64.515625 
Q 56.984375 54.828125 56.984375 36.375 
Q 56.984375 17.96875 50.515625 8.265625 
Q 44.046875 -1.421875 31.78125 -1.421875 
Q 19.53125 -1.421875 13.0625 8.265625 
Q 6.59375 17.96875 6.59375 36.375 
Q 6.59375 54.828125 13.0625 64.515625 
Q 19.53125 74.21875 31.78125 74.21875 
z
" id="DejaVuSans-48"/>
       </defs>
       <use xlink:href="#DejaVuSans-48"/>
      </g>
     </g>
    </g>
    <g id="xtick_2">
     <g id="line2d_2">
      <g>
       <use style="stroke:#000000;stroke-width:0.8;" x="120.371734" xlink:href="#m705a7e5c21" y="252"/>
      </g>
     </g>
     <g id="text_2">
      <!-- 20 -->
      <g transform="translate(114.009234 266.598437)scale(0.1 -0.1)">
       <defs>
        <path d="M 19.1875 8.296875 
L 53.609375 8.296875 
L 53.609375 0 
L 7.328125 0 
L 7.328125 8.296875 
Q 12.9375 14.109375 22.625 23.890625 
Q 32.328125 33.6875 34.8125 36.53125 
Q 39.546875 41.84375 41.421875 45.53125 
Q 43.3125 49.21875 43.3125 52.78125 
Q 43.3125 58.59375 39.234375 62.25 
Q 35.15625 65.921875 28.609375 65.921875 
Q 23.96875 65.921875 18.8125 64.3125 
Q 13.671875 62.703125 7.8125 59.421875 
L 7.8125 69.390625 
Q 13.765625 71.78125 18.9375 73 
Q 24.125 74.21875 28.421875 74.21875 
Q 39.75 74.21875 46.484375 68.546875 
Q 53.21875 62.890625 53.21875 53.421875 
Q 53.21875 48.921875 51.53125 44.890625 
Q 49.859375 40.875 45.40625 35.40625 
Q 44.1875 33.984375 37.640625 27.21875 
Q 31.109375 20.453125 19.1875 8.296875 
z
" id="DejaVuSans-50"/>
       </defs>
       <use xlink:href="#DejaVuSans-50"/>
       <use x="63.623047" xlink:href="#DejaVuSans-48"/>
      </g>
     </g>
    </g>
    <g id="xtick_3">
     <g id="line2d_3">
      <g>
       <use style="stroke:#000000;stroke-width:0.8;" x="171.525286" xlink:href="#m705a7e5c21" y="252"/>
      </g>
     </g>
     <g id="text_3">
      <!-- 40 -->
      <g transform="translate(165.162786 266.598437)scale(0.1 -0.1)">
       <defs>
        <path d="M 37.796875 64.3125 
L 12.890625 25.390625 
L 37.796875 25.390625 
z
M 35.203125 72.90625 
L 47.609375 72.90625 
L 47.609375 25.390625 
L 58.015625 25.390625 
L 58.015625 17.1875 
L 47.609375 17.1875 
L 47.609375 0 
L 37.796875 0 
L 37.796875 17.1875 
L 4.890625 17.1875 
L 4.890625 26.703125 
z
" id="DejaVuSans-52"/>
       </defs>
       <use xlink:href="#DejaVuSans-52"/>
       <use x="63.623047" xlink:href="#DejaVuSans-48"/>
      </g>
     </g>
    </g>
    <g id="xtick_4">
     <g id="line2d_4">
      <g>
       <use style="stroke:#000000;stroke-width:0.8;" x="222.678839" xlink:href="#m705a7e5c21" y="252"/>
      </g>
     </g>
     <g id="text_4">
      <!-- 60 -->
      <g transform="translate(216.316339 266.598437)scale(0.1 -0.1)">
       <defs>
        <path d="M 33.015625 40.375 
Q 26.375 40.375 22.484375 35.828125 
Q 18.609375 31.296875 18.609375 23.390625 
Q 18.609375 15.53125 22.484375 10.953125 
Q 26.375 6.390625 33.015625 6.390625 
Q 39.65625 6.390625 43.53125 10.953125 
Q 47.40625 15.53125 47.40625 23.390625 
Q 47.40625 31.296875 43.53125 35.828125 
Q 39.65625 40.375 33.015625 40.375 
z
M 52.59375 71.296875 
L 52.59375 62.3125 
Q 48.875 64.0625 45.09375 64.984375 
Q 41.3125 65.921875 37.59375 65.921875 
Q 27.828125 65.921875 22.671875 59.328125 
Q 17.53125 52.734375 16.796875 39.40625 
Q 19.671875 43.65625 24.015625 45.921875 
Q 28.375 48.1875 33.59375 48.1875 
Q 44.578125 48.1875 50.953125 41.515625 
Q 57.328125 34.859375 57.328125 23.390625 
Q 57.328125 12.15625 50.6875 5.359375 
Q 44.046875 -1.421875 33.015625 -1.421875 
Q 20.359375 -1.421875 13.671875 8.265625 
Q 6.984375 17.96875 6.984375 36.375 
Q 6.984375 53.65625 15.1875 63.9375 
Q 23.390625 74.21875 37.203125 74.21875 
Q 40.921875 74.21875 44.703125 73.484375 
Q 48.484375 72.75 52.59375 71.296875 
z
" id="DejaVuSans-54"/>
       </defs>
       <use xlink:href="#DejaVuSans-54"/>
       <use x="63.623047" xlink:href="#DejaVuSans-48"/>
      </g>
     </g>
    </g>
    <g id="xtick_5">
     <g id="line2d_5">
      <g>
       <use style="stroke:#000000;stroke-width:0.8;" x="273.832391" xlink:href="#m705a7e5c21" y="252"/>
      </g>
     </g>
     <g id="text_5">
      <!-- 80 -->
      <g transform="translate(267.469891 266.598437)scale(0.1 -0.1)">
       <defs>
        <path d="M 31.78125 34.625 
Q 24.75 34.625 20.71875 30.859375 
Q 16.703125 27.09375 16.703125 20.515625 
Q 16.703125 13.921875 20.71875 10.15625 
Q 24.75 6.390625 31.78125 6.390625 
Q 38.8125 6.390625 42.859375 10.171875 
Q 46.921875 13.96875 46.921875 20.515625 
Q 46.921875 27.09375 42.890625 30.859375 
Q 38.875 34.625 31.78125 34.625 
z
M 21.921875 38.8125 
Q 15.578125 40.375 12.03125 44.71875 
Q 8.5 49.078125 8.5 55.328125 
Q 8.5 64.0625 14.71875 69.140625 
Q 20.953125 74.21875 31.78125 74.21875 
Q 42.671875 74.21875 48.875 69.140625 
Q 55.078125 64.0625 55.078125 55.328125 
Q 55.078125 49.078125 51.53125 44.71875 
Q 48 40.375 41.703125 38.8125 
Q 48.828125 37.15625 52.796875 32.3125 
Q 56.78125 27.484375 56.78125 20.515625 
Q 56.78125 9.90625 50.3125 4.234375 
Q 43.84375 -1.421875 31.78125 -1.421875 
Q 19.734375 -1.421875 13.25 4.234375 
Q 6.78125 9.90625 6.78125 20.515625 
Q 6.78125 27.484375 10.78125 32.3125 
Q 14.796875 37.15625 21.921875 38.8125 
z
M 18.3125 54.390625 
Q 18.3125 48.734375 21.84375 45.5625 
Q 25.390625 42.390625 31.78125 42.390625 
Q 38.140625 42.390625 41.71875 45.5625 
Q 45.3125 48.734375 45.3125 54.390625 
Q 45.3125 60.0625 41.71875 63.234375 
Q 38.140625 66.40625 31.78125 66.40625 
Q 25.390625 66.40625 21.84375 63.234375 
Q 18.3125 60.0625 18.3125 54.390625 
z
" id="DejaVuSans-56"/>
       </defs>
       <use xlink:href="#DejaVuSans-56"/>
       <use x="63.623047" xlink:href="#DejaVuSans-48"/>
      </g>
     </g>
    </g>
    <g id="xtick_6">
     <g id="line2d_6">
      <g>
       <use style="stroke:#000000;stroke-width:0.8;" x="324.985943" xlink:href="#m705a7e5c21" y="252"/>
      </g>
     </g>
     <g id="text_6">
      <!-- 100 -->
      <g transform="translate(315.442193 266.598437)scale(0.1 -0.1)">
       <defs>
        <path d="M 12.40625 8.296875 
L 28.515625 8.296875 
L 28.515625 63.921875 
L 10.984375 60.40625 
L 10.984375 69.390625 
L 28.421875 72.90625 
L 38.28125 72.90625 
L 38.28125 8.296875 
L 54.390625 8.296875 
L 54.390625 0 
L 12.40625 0 
z
" id="DejaVuSans-49"/>
       </defs>
       <use xlink:href="#DejaVuSans-49"/>
       <use x="63.623047" xlink:href="#DejaVuSans-48"/>
       <use x="127.246094" xlink:href="#DejaVuSans-48"/>
      </g>
     </g>
    </g>
    <g id="xtick_7">
     <g id="line2d_7">
      <g>
       <use style="stroke:#000000;stroke-width:0.8;" x="376.139496" xlink:href="#m705a7e5c21" y="252"/>
      </g>
     </g>
     <g id="text_7">
      <!-- 120 -->
      <g transform="translate(366.595746 266.598437)scale(0.1 -0.1)">
       <use xlink:href="#DejaVuSans-49"/>
       <use x="63.623047" xlink:href="#DejaVuSans-50"/>
       <use x="127.246094" xlink:href="#DejaVuSans-48"/>
      </g>
     </g>
    </g>
   </g>
   <g id="matplotlib.axis_2">
    <g id="ytick_1">
     <g id="line2d_8">
      <defs>
       <path d="M 0 0 
L -3.5 0 
" id="me32f486894" style="stroke:#000000;stroke-width:0.8;"/>
      </defs>
      <g>
       <use style="stroke:#000000;stroke-width:0.8;" x="54" xlink:href="#me32f486894" y="221.811856"/>
      </g>
     </g>
     <g id="text_8">
      <!-- −1 -->
      <g transform="translate(32.257812 225.611075)scale(0.1 -0.1)">
       <defs>
        <path d="M 10.59375 35.5 
L 73.1875 35.5 
L 73.1875 27.203125 
L 10.59375 27.203125 
z
" id="DejaVuSans-8722"/>
       </defs>
       <use xlink:href="#DejaVuSans-8722"/>
       <use x="83.789062" xlink:href="#DejaVuSans-49"/>
      </g>
     </g>
    </g>
    <g id="ytick_2">
     <g id="line2d_9">
      <g>
       <use style="stroke:#000000;stroke-width:0.8;" x="54" xlink:href="#me32f486894" y="189.117156"/>
      </g>
     </g>
     <g id="text_9">
      <!-- 0 -->
      <g transform="translate(40.6375 192.916374)scale(0.1 -0.1)">
       <use xlink:href="#DejaVuSans-48"/>
      </g>
     </g>
    </g>
    <g id="ytick_3">
     <g id="line2d_10">
      <g>
       <use style="stroke:#000000;stroke-width:0.8;" x="54" xlink:href="#me32f486894" y="156.422455"/>
      </g>
     </g>
     <g id="text_10">
      <!-- 1 -->
      <g transform="translate(40.6375 160.221674)scale(0.1 -0.1)">
       <use xlink:href="#DejaVuSans-49"/>
      </g>
     </g>
    </g>
    <g id="ytick_4">
     <g id="line2d_11">
      <g>
       <use style="stroke:#000000;stroke-width:0.8;" x="54" xlink:href="#me32f486894" y="123.727755"/>
      </g>
     </g>
     <g id="text_11">
      <!-- 2 -->
      <g transform="translate(40.6375 127.526974)scale(0.1 -0.1)">
       <use xlink:href="#DejaVuSans-50"/>
      </g>
     </g>
    </g>
    <g id="ytick_5">
     <g id="line2d_12">
      <g>
       <use style="stroke:#000000;stroke-width:0.8;" x="54" xlink:href="#me32f486894" y="91.033054"/>
      </g>
     </g>
     <g id="text_12">
      <!-- 3 -->
      <g transform="translate(40.6375 94.832273)scale(0.1 -0.1)">
       <defs>
        <path d="M 40.578125 39.3125 
Q 47.65625 37.796875 51.625 33 
Q 55.609375 28.21875 55.609375 21.1875 
Q 55.609375 10.40625 48.1875 4.484375 
Q 40.765625 -1.421875 27.09375 -1.421875 
Q 22.515625 -1.421875 17.65625 -0.515625 
Q 12.796875 0.390625 7.625 2.203125 
L 7.625 11.71875 
Q 11.71875 9.328125 16.59375 8.109375 
Q 21.484375 6.890625 26.8125 6.890625 
Q 36.078125 6.890625 40.9375 10.546875 
Q 45.796875 14.203125 45.796875 21.1875 
Q 45.796875 27.640625 41.28125 31.265625 
Q 36.765625 34.90625 28.71875 34.90625 
L 20.21875 34.90625 
L 20.21875 43.015625 
L 29.109375 43.015625 
Q 36.375 43.015625 40.234375 45.921875 
Q 44.09375 48.828125 44.09375 54.296875 
Q 44.09375 59.90625 40.109375 62.90625 
Q 36.140625 65.921875 28.71875 65.921875 
Q 24.65625 65.921875 20.015625 65.03125 
Q 15.375 64.15625 9.8125 62.3125 
L 9.8125 71.09375 
Q 15.4375 72.65625 20.34375 73.4375 
Q 25.25 74.21875 29.59375 74.21875 
Q 40.828125 74.21875 47.359375 69.109375 
Q 53.90625 64.015625 53.90625 55.328125 
Q 53.90625 49.265625 50.4375 45.09375 
Q 46.96875 40.921875 40.578125 39.3125 
z
" id="DejaVuSans-51"/>
       </defs>
       <use xlink:href="#DejaVuSans-51"/>
      </g>
     </g>
    </g>
    <g id="ytick_6">
     <g id="line2d_13">
      <g>
       <use style="stroke:#000000;stroke-width:0.8;" x="54" xlink:href="#me32f486894" y="58.338354"/>
      </g>
     </g>
     <g id="text_13">
      <!-- 4 -->
      <g transform="translate(40.6375 62.137573)scale(0.1 -0.1)">
       <use xlink:href="#DejaVuSans-52"/>
      </g>
     </g>
    </g>
   </g>
   <g id="line2d_14">
    <path clip-path="url(#p12f4d556f3)" d="M 69.218182 213.256566 
L 71.775859 207.892063 
L 74.333537 197.36303 
L 76.891215 185.709923 
L 79.448892 160.264242 
L 82.00657 186.027272 
L 84.564248 206.428904 
L 87.121925 210.67927 
L 89.679603 213.152232 
L 92.23728 215.92205 
L 94.794958 216.558611 
L 97.352636 209.839009 
L 99.910313 210.371857 
L 102.467991 205.165718 
L 105.025668 202.338765 
L 107.583346 191.446426 
L 110.141024 203.710632 
L 112.698701 203.285844 
L 115.256379 208.505025 
L 117.814057 210.58984 
L 120.371734 211.504004 
L 122.929412 213.763331 
L 125.487089 211.418923 
L 128.044767 212.017601 
L 130.602445 205.006733 
L 133.160122 194.649106 
L 135.7178 168.497929 
L 138.275477 140.820868 
L 140.833155 182.937621 
L 143.390833 183.946183 
L 145.94851 201.653763 
L 148.506188 208.552224 
L 151.063866 216.69586 
L 153.621543 216.285356 
L 156.179221 218.124862 
L 158.736898 210.957493 
L 161.294576 205.894813 
L 163.852254 202.733743 
L 166.409931 192.082366 
L 168.967609 107.440219 
L 171.525286 188.994579 
L 174.082964 201.73015 
L 176.640642 201.233322 
L 179.198319 205.559454 
L 181.755997 209.743369 
L 184.313675 212.666583 
L 186.871352 213.547211 
L 189.42903 206.379221 
L 191.986707 194.570855 
L 194.544385 204.087601 
L 197.102063 147.448557 
L 199.65974 151.183463 
L 202.217418 177.183729 
L 204.775095 191.071321 
L 207.332773 192.351275 
L 209.890451 200.053355 
L 212.448128 206.3904 
L 215.005806 208.360945 
L 217.563484 214.481248 
L 220.121161 207.264196 
L 222.678839 198.693909 
L 225.236516 194.749713 
L 227.794194 182.822109 
L 230.351872 184.540513 
L 232.909549 191.19677 
L 235.467227 157.41369 
L 238.024905 177.501699 
L 240.582582 187.225249 
L 243.14026 199.747185 
L 245.697937 207.468517 
L 248.255615 210.299196 
L 250.813293 199.093855 
L 253.37097 201.931987 
L 255.928648 189.516248 
L 258.486325 181.658288 
L 261.044003 166.269033 
L 263.601681 133.680825 
L 266.159358 124.655318 
L 268.717036 197.29099 
L 271.274714 205.9948 
L 273.832391 208.083342 
L 276.390069 217.141142 
L 278.947746 215.906524 
L 281.505424 213.610556 
L 284.063102 202.736228 
L 286.620779 192.7624 
L 289.178457 177.922761 
L 291.736134 130.121671 
L 294.293812 44.443636 
L 296.85149 149.302968 
L 299.409167 186.737736 
L 301.966845 203.293296 
L 304.524523 207.954167 
L 307.0822 210.995998 
L 309.639878 210.194241 
L 312.197555 209.943343 
L 314.755233 194.96956 
L 317.312911 178.981626 
L 319.870588 188.777837 
L 322.428266 154.443899 
" style="fill:none;stroke:#ffa500;stroke-linecap:square;stroke-width:1.5;"/>
   </g>
   <g id="line2d_15">
    <path clip-path="url(#p12f4d556f3)" d="M 69.218182 226.320186 
L 71.775859 207.223035 
L 74.333537 183.976673 
L 76.891215 179.720945 
L 79.448892 186.03973 
L 82.00657 194.410187 
L 84.564248 218.93782 
L 87.121925 219.739671 
L 89.679603 223.913462 
L 92.23728 230.502082 
L 94.794958 222.528512 
L 97.352636 207.244444 
L 99.910313 209.019642 
L 102.467991 201.156466 
L 105.025668 190.102176 
L 107.583346 178.05232 
L 110.141024 181.456124 
L 112.698701 194.276896 
L 115.256379 204.877612 
L 117.814057 211.048222 
L 120.371734 209.663385 
L 122.929412 217.696304 
L 125.487089 206.784037 
L 128.044767 217.78896 
L 130.602445 197.399028 
L 133.160122 185.518613 
L 135.7178 186.946438 
L 138.275477 163.141795 
L 140.833155 175.777344 
L 143.390833 177.147595 
L 145.94851 202.769073 
L 148.506188 197.998855 
L 151.063866 218.556669 
L 153.621543 222.727087 
L 156.179221 230.328432 
L 158.736898 217.190398 
L 161.294576 201.179127 
L 163.852254 189.572835 
L 166.409931 187.985651 
L 168.967609 142.008233 
L 171.525286 177.497143 
L 174.082964 180.659224 
L 176.640642 201.014261 
L 179.198319 205.647565 
L 181.755997 210.95261 
L 184.313675 210.35608 
L 186.871352 209.590075 
L 189.42903 209.169399 
L 191.986707 194.202583 
L 194.544385 194.743287 
L 197.102063 178.722553 
L 199.65974 159.67155 
L 202.217418 153.100944 
L 204.775095 156.704646 
L 207.332773 177.052317 
L 209.890451 195.844163 
L 212.448128 206.525907 
L 215.005806 206.151279 
L 217.563484 222.58142 
L 220.121161 209.146621 
L 222.678839 190.880264 
L 225.236516 188.742444 
L 227.794194 185.058486 
L 230.351872 166.759415 
L 232.909549 172.056737 
L 235.467227 173.385884 
L 238.024905 190.46259 
L 240.582582 197.18147 
L 243.14026 204.465783 
L 245.697937 214.020188 
L 248.255615 215.251569 
L 250.813293 194.87388 
L 253.37097 199.359136 
L 255.928648 183.111156 
L 258.486325 171.366466 
L 261.044003 161.586348 
L 263.601681 165.611992 
L 266.159358 147.696318 
L 268.717036 201.87811 
L 271.274714 191.183001 
L 273.832391 193.083884 
L 276.390069 217.27104 
L 278.947746 206.890249 
L 281.505424 201.849166 
L 284.063102 193.048588 
L 286.620779 178.342774 
L 289.178457 167.40673 
L 291.736134 153.75524 
L 294.293812 159.262122 
L 296.85149 167.518274 
L 299.409167 194.026575 
L 301.966845 199.873453 
L 304.524523 195.036946 
L 307.0822 200.647492 
L 309.639878 193.29584 
L 312.197555 213.311455 
L 314.755233 190.723856 
L 317.312911 172.649172 
L 319.870588 184.076931 
L 322.428266 156.948855 
" style="fill:none;stroke:#ffa500;stroke-dasharray:9.6,2.4,1.5,2.4;stroke-dashoffset:0;stroke-width:1.5;"/>
   </g>
   <g id="line2d_16">
    <path clip-path="url(#p12f4d556f3)" d="M 324.985943 119.559102 
L 327.543621 111.671953 
L 330.101299 174.030111 
L 332.658976 188.393417 
L 335.216654 208.208791 
L 337.774332 209.293119 
L 340.332009 210.111643 
L 342.889687 200.39803 
L 345.447364 187.922672 
L 348.005042 177.335882 
L 350.56272 122.693467 
L 353.120397 61.250716 
L 355.678075 95.705756 
L 358.235752 87.893753 
L 360.79343 195.692445 
L 363.351108 207.502053 
L 365.908785 214.919078 
L 368.466463 207.831823 
L 371.024141 213.97262 
L 373.581818 211.808312 
" style="fill:none;stroke:#0000ff;stroke-linecap:square;stroke-width:1.5;"/>
   </g>
   <g id="line2d_17">
    <path clip-path="url(#p12f4d556f3)" d="M 324.985943 165.054211 
L 327.543621 161.530549 
L 330.101299 192.673383 
L 332.658976 183.147861 
L 335.216654 207.005697 
L 337.774332 206.309646 
L 340.332009 205.719678 
L 342.889687 203.309744 
L 345.447364 187.688099 
L 348.005042 173.391818 
L 350.56272 163.875908 
L 353.120397 140.81601 
L 355.678075 166.006638 
L 358.235752 169.734735 
L 360.79343 113.0384 
L 363.351108 140.154931 
L 365.908785 145.77834 
L 368.466463 138.70761 
L 371.024141 171.922132 
L 373.581818 160.307866 
" style="fill:none;stroke:#0000ff;stroke-dasharray:9.6,2.4,1.5,2.4;stroke-dashoffset:0;stroke-width:1.5;"/>
   </g>
   <g id="patch_3">
    <path d="M 54 252 
L 54 34.56 
" style="fill:none;stroke:#000000;stroke-linecap:square;stroke-linejoin:miter;stroke-width:0.8;"/>
   </g>
   <g id="patch_4">
    <path d="M 388.8 252 
L 388.8 34.56 
" style="fill:none;stroke:#000000;stroke-linecap:square;stroke-linejoin:miter;stroke-width:0.8;"/>
   </g>
   <g id="patch_5">
    <path d="M 54 252 
L 388.8 252 
" style="fill:none;stroke:#000000;stroke-linecap:square;stroke-linejoin:miter;stroke-width:0.8;"/>
   </g>
   <g id="patch_6">
    <path d="M 54 34.56 
L 388.8 34.56 
" style="fill:none;stroke:#000000;stroke-linecap:square;stroke-linejoin:miter;stroke-width:0.8;"/>
   </g>
   <g id="legend_1">
    <g id="patch_7">
     <path d="M 61 101.2725 
L 150.489062 101.2725 
Q 152.489062 101.2725 152.489062 99.2725 
L 152.489062 41.56 
Q 152.489062 39.56 150.489062 39.56 
L 61 39.56 
Q 59 39.56 59 41.56 
L 59 99.2725 
Q 59 101.2725 61 101.2725 
z
" style="fill:#ffffff;opacity:0.8;stroke:#cccccc;stroke-linejoin:miter;"/>
    </g>
    <g id="line2d_18">
     <path d="M 63 47.658437 
L 83 47.658437 
" style="fill:none;stroke:#ffa500;stroke-linecap:square;stroke-width:1.5;"/>
    </g>
    <g id="line2d_19"/>
    <g id="text_14">
     <!-- ILI train -->
     <g transform="translate(91 51.158437)scale(0.1 -0.1)">
      <defs>
       <path d="M 9.8125 72.90625 
L 19.671875 72.90625 
L 19.671875 0 
L 9.8125 0 
z
" id="DejaVuSans-73"/>
       <path d="M 9.8125 72.90625 
L 19.671875 72.90625 
L 19.671875 8.296875 
L 55.171875 8.296875 
L 55.171875 0 
L 9.8125 0 
z
" id="DejaVuSans-76"/>
       <path id="DejaVuSans-32"/>
       <path d="M 18.3125 70.21875 
L 18.3125 54.6875 
L 36.8125 54.6875 
L 36.8125 47.703125 
L 18.3125 47.703125 
L 18.3125 18.015625 
Q 18.3125 11.328125 20.140625 9.421875 
Q 21.96875 7.515625 27.59375 7.515625 
L 36.8125 7.515625 
L 36.8125 0 
L 27.59375 0 
Q 17.1875 0 13.234375 3.875 
Q 9.28125 7.765625 9.28125 18.015625 
L 9.28125 47.703125 
L 2.6875 47.703125 
L 2.6875 54.6875 
L 9.28125 54.6875 
L 9.28125 70.21875 
z
" id="DejaVuSans-116"/>
       <path d="M 41.109375 46.296875 
Q 39.59375 47.171875 37.8125 47.578125 
Q 36.03125 48 33.890625 48 
Q 26.265625 48 22.1875 43.046875 
Q 18.109375 38.09375 18.109375 28.8125 
L 18.109375 0 
L 9.078125 0 
L 9.078125 54.6875 
L 18.109375 54.6875 
L 18.109375 46.1875 
Q 20.953125 51.171875 25.484375 53.578125 
Q 30.03125 56 36.53125 56 
Q 37.453125 56 38.578125 55.875 
Q 39.703125 55.765625 41.0625 55.515625 
z
" id="DejaVuSans-114"/>
       <path d="M 34.28125 27.484375 
Q 23.390625 27.484375 19.1875 25 
Q 14.984375 22.515625 14.984375 16.5 
Q 14.984375 11.71875 18.140625 8.90625 
Q 21.296875 6.109375 26.703125 6.109375 
Q 34.1875 6.109375 38.703125 11.40625 
Q 43.21875 16.703125 43.21875 25.484375 
L 43.21875 27.484375 
z
M 52.203125 31.203125 
L 52.203125 0 
L 43.21875 0 
L 43.21875 8.296875 
Q 40.140625 3.328125 35.546875 0.953125 
Q 30.953125 -1.421875 24.3125 -1.421875 
Q 15.921875 -1.421875 10.953125 3.296875 
Q 6 8.015625 6 15.921875 
Q 6 25.140625 12.171875 29.828125 
Q 18.359375 34.515625 30.609375 34.515625 
L 43.21875 34.515625 
L 43.21875 35.40625 
Q 43.21875 41.609375 39.140625 45 
Q 35.0625 48.390625 27.6875 48.390625 
Q 23 48.390625 18.546875 47.265625 
Q 14.109375 46.140625 10.015625 43.890625 
L 10.015625 52.203125 
Q 14.9375 54.109375 19.578125 55.046875 
Q 24.21875 56 28.609375 56 
Q 40.484375 56 46.34375 49.84375 
Q 52.203125 43.703125 52.203125 31.203125 
z
" id="DejaVuSans-97"/>
       <path d="M 9.421875 54.6875 
L 18.40625 54.6875 
L 18.40625 0 
L 9.421875 0 
z
M 9.421875 75.984375 
L 18.40625 75.984375 
L 18.40625 64.59375 
L 9.421875 64.59375 
z
" id="DejaVuSans-105"/>
       <path d="M 54.890625 33.015625 
L 54.890625 0 
L 45.90625 0 
L 45.90625 32.71875 
Q 45.90625 40.484375 42.875 44.328125 
Q 39.84375 48.1875 33.796875 48.1875 
Q 26.515625 48.1875 22.3125 43.546875 
Q 18.109375 38.921875 18.109375 30.90625 
L 18.109375 0 
L 9.078125 0 
L 9.078125 54.6875 
L 18.109375 54.6875 
L 18.109375 46.1875 
Q 21.34375 51.125 25.703125 53.5625 
Q 30.078125 56 35.796875 56 
Q 45.21875 56 50.046875 50.171875 
Q 54.890625 44.34375 54.890625 33.015625 
z
" id="DejaVuSans-110"/>
      </defs>
      <use xlink:href="#DejaVuSans-73"/>
      <use x="29.492188" xlink:href="#DejaVuSans-76"/>
      <use x="85.205078" xlink:href="#DejaVuSans-73"/>
      <use x="114.697266" xlink:href="#DejaVuSans-32"/>
      <use x="146.484375" xlink:href="#DejaVuSans-116"/>
      <use x="185.693359" xlink:href="#DejaVuSans-114"/>
      <use x="226.806641" xlink:href="#DejaVuSans-97"/>
      <use x="288.085938" xlink:href="#DejaVuSans-105"/>
      <use x="315.869141" xlink:href="#DejaVuSans-110"/>
     </g>
    </g>
    <g id="line2d_20">
     <path d="M 63 62.336562 
L 83 62.336562 
" style="fill:none;stroke:#ffa500;stroke-dasharray:9.6,2.4,1.5,2.4;stroke-dashoffset:0;stroke-width:1.5;"/>
    </g>
    <g id="line2d_21"/>
    <g id="text_15">
     <!-- ILI train hat -->
     <g transform="translate(91 65.836562)scale(0.1 -0.1)">
      <defs>
       <path d="M 54.890625 33.015625 
L 54.890625 0 
L 45.90625 0 
L 45.90625 32.71875 
Q 45.90625 40.484375 42.875 44.328125 
Q 39.84375 48.1875 33.796875 48.1875 
Q 26.515625 48.1875 22.3125 43.546875 
Q 18.109375 38.921875 18.109375 30.90625 
L 18.109375 0 
L 9.078125 0 
L 9.078125 75.984375 
L 18.109375 75.984375 
L 18.109375 46.1875 
Q 21.34375 51.125 25.703125 53.5625 
Q 30.078125 56 35.796875 56 
Q 45.21875 56 50.046875 50.171875 
Q 54.890625 44.34375 54.890625 33.015625 
z
" id="DejaVuSans-104"/>
      </defs>
      <use xlink:href="#DejaVuSans-73"/>
      <use x="29.492188" xlink:href="#DejaVuSans-76"/>
      <use x="85.205078" xlink:href="#DejaVuSans-73"/>
      <use x="114.697266" xlink:href="#DejaVuSans-32"/>
      <use x="146.484375" xlink:href="#DejaVuSans-116"/>
      <use x="185.693359" xlink:href="#DejaVuSans-114"/>
      <use x="226.806641" xlink:href="#DejaVuSans-97"/>
      <use x="288.085938" xlink:href="#DejaVuSans-105"/>
      <use x="315.869141" xlink:href="#DejaVuSans-110"/>
      <use x="379.248047" xlink:href="#DejaVuSans-32"/>
      <use x="411.035156" xlink:href="#DejaVuSans-104"/>
      <use x="474.414062" xlink:href="#DejaVuSans-97"/>
      <use x="535.693359" xlink:href="#DejaVuSans-116"/>
     </g>
    </g>
    <g id="line2d_22">
     <path d="M 63 77.014687 
L 83 77.014687 
" style="fill:none;stroke:#0000ff;stroke-linecap:square;stroke-width:1.5;"/>
    </g>
    <g id="line2d_23"/>
    <g id="text_16">
     <!-- ILI test -->
     <g transform="translate(91 80.514687)scale(0.1 -0.1)">
      <defs>
       <path d="M 56.203125 29.59375 
L 56.203125 25.203125 
L 14.890625 25.203125 
Q 15.484375 15.921875 20.484375 11.0625 
Q 25.484375 6.203125 34.421875 6.203125 
Q 39.59375 6.203125 44.453125 7.46875 
Q 49.3125 8.734375 54.109375 11.28125 
L 54.109375 2.78125 
Q 49.265625 0.734375 44.1875 -0.34375 
Q 39.109375 -1.421875 33.890625 -1.421875 
Q 20.796875 -1.421875 13.15625 6.1875 
Q 5.515625 13.8125 5.515625 26.8125 
Q 5.515625 40.234375 12.765625 48.109375 
Q 20.015625 56 32.328125 56 
Q 43.359375 56 49.78125 48.890625 
Q 56.203125 41.796875 56.203125 29.59375 
z
M 47.21875 32.234375 
Q 47.125 39.59375 43.09375 43.984375 
Q 39.0625 48.390625 32.421875 48.390625 
Q 24.90625 48.390625 20.390625 44.140625 
Q 15.875 39.890625 15.1875 32.171875 
z
" id="DejaVuSans-101"/>
       <path d="M 44.28125 53.078125 
L 44.28125 44.578125 
Q 40.484375 46.53125 36.375 47.5 
Q 32.28125 48.484375 27.875 48.484375 
Q 21.1875 48.484375 17.84375 46.4375 
Q 14.5 44.390625 14.5 40.28125 
Q 14.5 37.15625 16.890625 35.375 
Q 19.28125 33.59375 26.515625 31.984375 
L 29.59375 31.296875 
Q 39.15625 29.25 43.1875 25.515625 
Q 47.21875 21.78125 47.21875 15.09375 
Q 47.21875 7.46875 41.1875 3.015625 
Q 35.15625 -1.421875 24.609375 -1.421875 
Q 20.21875 -1.421875 15.453125 -0.5625 
Q 10.6875 0.296875 5.421875 2 
L 5.421875 11.28125 
Q 10.40625 8.6875 15.234375 7.390625 
Q 20.0625 6.109375 24.8125 6.109375 
Q 31.15625 6.109375 34.5625 8.28125 
Q 37.984375 10.453125 37.984375 14.40625 
Q 37.984375 18.0625 35.515625 20.015625 
Q 33.0625 21.96875 24.703125 23.78125 
L 21.578125 24.515625 
Q 13.234375 26.265625 9.515625 29.90625 
Q 5.8125 33.546875 5.8125 39.890625 
Q 5.8125 47.609375 11.28125 51.796875 
Q 16.75 56 26.8125 56 
Q 31.78125 56 36.171875 55.265625 
Q 40.578125 54.546875 44.28125 53.078125 
z
" id="DejaVuSans-115"/>
      </defs>
      <use xlink:href="#DejaVuSans-73"/>
      <use x="29.492188" xlink:href="#DejaVuSans-76"/>
      <use x="85.205078" xlink:href="#DejaVuSans-73"/>
      <use x="114.697266" xlink:href="#DejaVuSans-32"/>
      <use x="146.484375" xlink:href="#DejaVuSans-116"/>
      <use x="185.693359" xlink:href="#DejaVuSans-101"/>
      <use x="247.216797" xlink:href="#DejaVuSans-115"/>
      <use x="299.316406" xlink:href="#DejaVuSans-116"/>
     </g>
    </g>
    <g id="line2d_24">
     <path d="M 63 91.692813 
L 83 91.692813 
" style="fill:none;stroke:#0000ff;stroke-dasharray:9.6,2.4,1.5,2.4;stroke-dashoffset:0;stroke-width:1.5;"/>
    </g>
    <g id="line2d_25"/>
    <g id="text_17">
     <!-- ILI test hat -->
     <g transform="translate(91 95.192813)scale(0.1 -0.1)">
      <use xlink:href="#DejaVuSans-73"/>
      <use x="29.492188" xlink:href="#DejaVuSans-76"/>
      <use x="85.205078" xlink:href="#DejaVuSans-73"/>
      <use x="114.697266" xlink:href="#DejaVuSans-32"/>
      <use x="146.484375" xlink:href="#DejaVuSans-116"/>
      <use x="185.693359" xlink:href="#DejaVuSans-101"/>
      <use x="247.216797" xlink:href="#DejaVuSans-115"/>
      <use x="299.316406" xlink:href="#DejaVuSans-116"/>
      <use x="338.525391" xlink:href="#DejaVuSans-32"/>
      <use x="370.3125" xlink:href="#DejaVuSans-104"/>
      <use x="433.691406" xlink:href="#DejaVuSans-97"/>
      <use x="494.970703" xlink:href="#DejaVuSans-116"/>
     </g>
    </g>
   </g>
  </g>
 </g>
 <defs>
  <clipPath id="p12f4d556f3">
   <rect height="217.44" width="334.8" x="54" y="34.56"/>
  </clipPath>
 </defs>
</svg>
